# xmcd
#
# Track frame offsets: 
#        150
#        11434
#        26206
#        47466
#        62273
#        79300
#        95403
#        109239
#        121685
#        133013
#        144628
#        159236
#        184695
#        194908
#        208652
#        240282
#        263969
#        295367
#        312901
#        326631
#
# Disc length: 4553 seconds
#
# Revision: 0
# Processed by: cddbd v1.5.2PL0 Copyright (c) Steve Scherf et al.
# Submitted via: ExactAudioCopy v0.99pb5
#
DISCID=1c11c714
DTITLE=Various / Jazz Manouche CD 1
DYEAR=
DGENRE=Jazz
TTITLE0=Bireli Lagrène: New York City  
TTITLE1=Angelo Debarre Quartet: Flèche D'or
TTITLE2=Tchavolo Schmitt: Undecided
TTITLE3=Romane: Jo's Remake
TTITLE4=Gyppsy Guitars: Cherokee
TTITLE5=Mandino Reinhardt: Stompin' At Decca
TTITLE6=Stochelo Rosenberg: Joseph's Tiger
TTITLE7=New Quintet Du Hot Club De France: Minor Swing
TTITLE8=Dorado Schmitt: Bleu Citron
TTITLE9=Babik Reinhardt: Djangologie
TTITLE10=Note Manouche: Complices
TTITLE11=Romane: After You've Gone 
TTITLE12=Tchan Tchou Vidal: Les Yeux Noirs
TTITLE13=Moreno: J'attendrai
TTITLE14=Christian Escoudé, Dorado Schmitt, Babik Reinhardt: Où Es Tu 
TTITLE14=Mon Amour
TTITLE15=HänsŽche Weiss Quartett: S'wonderful
TTITLE16=Stéphane Grappelli: Oh, Lady, Be Good (live In Paris 1992)
TTITLE17=Boulou: La Bande Des Trois 
TTITLE18=Fapy Lafertin: Twelth Year
TTITLE19=Le Quintette Du Hot Club De France, Django Reinhardt: Manoir 
TTITLE19=De Mes Rêves
EXTD=
EXTT0=
EXTT1=
EXTT2=
EXTT3=
EXTT4=
EXTT5=
EXTT6=
EXTT7=
EXTT8=
EXTT9=
EXTT10=
EXTT11=
EXTT12=
EXTT13=
EXTT14=
EXTT15=
EXTT16=
EXTT17=
EXTT18=
EXTT19=
PLAYORDER=
